<svg width="16" height="16" viewBox="0 0 16 16" fill="none" xmlns="http://www.w3.org/2000/svg">
<path d="M8 0C3.5888 0 0 3.5888 0 8C0 12.4112 3.5888 16 8 16C12.4112 16 16 12.4112 16 8C16 3.5888 12.4112 0 8 0ZM2.25573 6.17733C2.2264 6.29973 2.1168 6.38187 1.99653 6.38187C1.976 6.38187 1.95493 6.37947 1.93413 6.37467C1.79093 6.34 1.70267 6.196 1.73707 6.05307C1.98933 5.00373 2.52507 4.0472 3.28613 3.28613C4.0472 2.52507 5.00373 1.9896 6.05307 1.73707C6.196 1.7032 6.34027 1.79093 6.37467 1.93413C6.40907 2.07707 6.3208 2.22107 6.1776 2.25573C5.22427 2.4848 4.35467 2.97173 3.6632 3.66293C2.97173 4.35413 2.4848 5.224 2.25573 6.17733ZM3.28347 6.72693C3.26347 6.72693 3.2432 6.7248 3.22267 6.72C3.0792 6.68667 2.98987 6.5432 3.02347 6.4C3.21547 5.576 3.632 4.8256 4.2288 4.22907C4.82507 3.63253 5.57573 3.21573 6.39973 3.02373C6.5424 2.9888 6.6864 3.07947 6.71973 3.22293C6.75333 3.36613 6.664 3.5096 6.52053 3.54293C5.79387 3.71227 5.132 4.08 4.60587 4.60587C4.07973 5.13173 3.712 5.79387 3.54293 6.52053C3.5144 6.64373 3.4048 6.72693 3.28347 6.72693ZM4.83067 6.86187C4.8032 6.98667 4.69307 7.07147 4.5704 7.07147C4.55147 7.07147 4.53227 7.06933 4.51307 7.06533C4.36933 7.03387 4.27813 6.89173 4.3096 6.748C4.57547 5.5328 5.53253 4.57573 6.74773 4.30987C6.89093 4.27893 7.03333 4.36907 7.06507 4.51333C7.09653 4.65707 7.00533 4.7992 6.8616 4.83067C5.84987 5.05227 5.05227 5.84987 4.83067 6.86187ZM5.84533 8C5.84533 6.812 6.812 5.84533 8 5.84533C9.188 5.84533 10.1547 6.812 10.1547 8C10.1547 9.188 9.188 10.1547 8 10.1547C6.812 10.1547 5.84533 9.188 5.84533 8ZM9.19467 11.6963C9.072 11.6963 8.96187 11.6115 8.9344 11.4867C8.90293 11.3429 8.99413 11.2008 9.13787 11.1693C10.1501 10.9477 10.9475 10.1504 11.1691 9.13813C11.2005 8.99387 11.3424 8.9032 11.4864 8.93467C11.6301 8.96613 11.7213 9.10827 11.6899 9.252C11.424 10.4672 10.4669 11.4243 9.25173 11.6901C9.2328 11.6944 9.21387 11.6963 9.19467 11.6963ZM9.53947 12.9835C9.4184 12.9835 9.3088 12.9003 9.28 12.7773C9.2464 12.6341 9.33573 12.4907 9.4792 12.4573C10.2059 12.288 10.8677 11.9203 11.3939 11.3944C11.92 10.8685 12.2877 10.2064 12.4568 9.47973C12.4901 9.33627 12.6333 9.24507 12.7768 9.28053C12.9203 9.31387 13.0096 9.45733 12.976 9.60053C12.784 10.4245 12.3675 11.1749 11.7707 11.7715C11.1744 12.368 10.4237 12.7848 9.59973 12.9768C9.58 12.9813 9.55973 12.9835 9.53947 12.9835ZM12.7141 12.7141C11.9531 13.4752 10.9965 14.0107 9.94693 14.2632C9.92613 14.2683 9.90507 14.2704 9.88453 14.2704C9.76427 14.2704 9.65493 14.1883 9.62533 14.0659C9.59093 13.9229 9.6792 13.7789 9.8224 13.7443C10.776 13.5152 11.6456 13.0283 12.3371 12.3371C13.0285 11.6459 13.5152 10.776 13.7443 9.82267C13.7787 9.6792 13.9224 9.5912 14.0659 9.6256C14.2091 9.66027 14.2973 9.80427 14.2629 9.9472C14.0107 10.9963 13.4749 11.9531 12.7141 12.7141Z" fill="#4484b8"/>
</svg>
