<svg width="16" height="14" viewBox="0 0 16 14" fill="none" xmlns="http://www.w3.org/2000/svg">
<path d="M8.00002 3.24365L2.2937 7.99242C2.2937 7.99912 2.29203 8.00898 2.2887 8.02242C2.28543 8.03576 2.28369 8.04544 2.28369 8.05232V12.8609C2.28369 13.0346 2.34657 13.185 2.4723 13.3117C2.59799 13.4385 2.74683 13.5023 2.91886 13.5023H6.72961V9.65529H9.27047V13.5024H13.0812C13.2532 13.5024 13.4022 13.4388 13.5277 13.3117C13.6535 13.1852 13.7166 13.0346 13.7166 12.8609V8.05232C13.7166 8.02565 13.7129 8.00551 13.7066 7.99242L8.00002 3.24365Z" fill="#4484b8"/>
<path d="M15.8897 6.91041L13.7164 5.08712V0.999701C13.7164 0.906259 13.6867 0.829415 13.6269 0.769272C13.5677 0.7092 13.4916 0.679163 13.3988 0.679163H11.4934C11.4007 0.679163 11.3246 0.7092 11.265 0.769272C11.2056 0.829415 11.1758 0.906294 11.1758 0.999701V2.95321L8.75437 0.909453C8.54289 0.735797 8.29144 0.648987 8.00029 0.648987C7.70917 0.648987 7.45775 0.735797 7.24606 0.909453L0.110339 6.91041C0.044191 6.96375 0.00793619 7.03554 0.00119274 7.12572C-0.00551596 7.21583 0.0175995 7.29453 0.0706086 7.36127L0.685897 8.10263C0.738906 8.1627 0.808287 8.19944 0.894318 8.21288C0.973745 8.21962 1.05317 8.19618 1.1326 8.14277L8.00008 2.36214L14.8676 8.14274C14.9207 8.18934 14.99 8.2126 15.0761 8.2126H15.1059C15.1918 8.19941 15.261 8.16242 15.3143 8.10249L15.9297 7.36123C15.9826 7.29435 16.0057 7.21579 15.9989 7.12558C15.9921 7.03564 15.9557 6.96385 15.8897 6.91041Z" fill="#4484b8"/>
</svg>
