<svg width="14" height="16" viewBox="0 0 14 16" fill="none" xmlns="http://www.w3.org/2000/svg">
<path d="M8.67457 10.9835H5.31077C2.5466 10.9835 0.294312 13.2358 0.294312 16H13.7056C13.691 13.2504 11.4387 10.9835 8.67457 10.9835Z" fill="#4484b8"/>
<path d="M7.59231 8.68735C7.85556 8.68735 8.10419 8.7751 8.29432 8.93598H9.50822C10.1078 8.3071 10.4735 7.47346 10.4735 6.53745C10.4735 4.60692 8.90858 3.05664 6.99268 3.05664C5.07677 3.05664 3.51187 4.60692 3.51187 6.53745C3.51187 7.83909 4.22851 8.97986 5.29615 9.57949C5.41315 9.06761 5.86653 8.68735 6.39304 8.68735H7.59231Z" fill="#4484b8"/>
<path d="M1.84459 6.82998C1.88847 7.19561 2.06397 7.53199 2.3126 7.78062C2.50273 7.97075 2.75136 8.117 3.02924 8.20475C3.01461 8.14625 3.01461 8.08775 3.01461 8.04388V5.20658C3.01461 5.14808 3.01461 5.08958 3.02924 5.03108C2.75136 5.10421 2.51736 5.25046 2.3126 5.45521C2.29798 5.46984 2.26873 5.49909 2.2541 5.51371V5.39671C2.2541 5.11883 2.28335 4.84095 2.32723 4.5777C2.3711 4.29982 2.44423 4.03656 2.54661 3.78793C2.63436 3.52468 2.75136 3.27605 2.89761 3.04205C3.02924 2.80804 3.19012 2.57404 3.36562 2.36929C3.38024 2.35466 3.39487 2.32541 3.39487 2.31079C3.5265 2.32541 3.65812 2.28154 3.74587 2.19378C4.63801 1.30165 5.80803 0.862889 6.96342 0.862889C8.11882 0.862889 9.30346 1.30165 10.181 2.19378C10.2833 2.29616 10.415 2.32541 10.532 2.31079C10.5466 2.32541 10.5466 2.35466 10.5612 2.36929C10.7367 2.57404 10.8976 2.80804 11.0292 3.04205C11.1609 3.27605 11.2779 3.52468 11.3802 3.78793C11.468 4.05119 11.5411 4.31444 11.5996 4.59232C11.6435 4.85558 11.6727 5.13346 11.6727 5.41133V5.52834C11.6581 5.49909 11.6289 5.48446 11.6142 5.46984C11.4241 5.27971 11.1755 5.13346 10.8976 5.0457C10.9122 5.10421 10.9122 5.16271 10.9122 5.22121V8.04388C10.9122 8.10238 10.9122 8.16088 10.8976 8.20475C10.9707 8.19013 11.0439 8.16088 11.117 8.13163V9.05302C11.117 9.15539 11.1024 9.25777 11.0877 9.3309C11.0731 9.40402 11.0439 9.4479 11.0146 9.49177C10.9854 9.52102 10.9415 9.55027 10.8976 9.5649C10.8391 9.57952 10.7806 9.59415 10.7075 9.59415H10.6929H8.00182C7.91406 9.4479 7.76781 9.34552 7.57768 9.34552H6.37842C6.11516 9.34552 5.91041 9.5649 5.91041 9.81353C5.92503 10.0768 6.12979 10.2815 6.39304 10.2815H7.59231C7.76781 10.2815 7.92869 10.1792 8.01644 10.0329H10.7367H10.8391C10.9415 10.0329 11.0292 10.0037 11.117 9.97441C11.234 9.93053 11.3217 9.87203 11.4095 9.78428C11.4826 9.69653 11.5411 9.59415 11.585 9.46252C11.6142 9.34552 11.6435 9.19927 11.6435 9.03839V7.86837V7.8245C11.6581 7.80987 11.6727 7.79525 11.6874 7.78062C11.936 7.53199 12.1115 7.19561 12.1554 6.82998C12.17 6.81536 12.1846 6.81536 12.1846 6.80073C12.2285 6.75686 12.2578 6.68373 12.2578 6.62523V5.41133C12.2578 5.10421 12.2285 4.79707 12.1846 4.50457C12.0969 4.19744 12.0238 3.90494 11.9214 3.61243C11.819 3.31993 11.6874 3.04205 11.5265 2.77879C11.3802 2.51554 11.2047 2.26691 11 2.03291C10.9854 2.00366 10.9561 1.98903 10.9269 1.97441C10.9561 1.84278 10.9122 1.6819 10.8099 1.57952C9.75684 0.526508 8.38207 0 6.99267 0C5.60328 0 4.22851 0.526508 3.16087 1.57952C3.05849 1.6819 3.01461 1.84278 3.04386 1.97441C3.01461 1.98903 2.99999 2.00366 2.97074 2.03291C2.76598 2.26691 2.59048 2.51554 2.44423 2.77879C2.29798 3.04205 2.16635 3.31993 2.04935 3.61243C1.94697 3.90494 1.85922 4.19744 1.81534 4.50457C1.75684 4.79707 1.74222 5.10421 1.74222 5.41133V6.62523C1.74222 6.69835 1.77147 6.75686 1.81534 6.80073C1.82997 6.81536 1.84459 6.81536 1.84459 6.82998Z" fill="#4484b8"/>
</svg>
