<svg width="20" height="14" viewBox="0 0 20 14" fill="none" xmlns="http://www.w3.org/2000/svg">
<path d="M19.1299 7.8102C18.5499 7.1175 17.8088 6.66852 16.9058 6.46298C17.1908 6.05203 17.3328 5.59462 17.3328 5.09085C17.3328 4.38816 17.0724 3.78831 16.5517 3.29109C16.031 2.79405 15.4025 2.54543 14.6664 2.54543C14.0066 2.54543 13.4303 2.75094 12.9374 3.16196C12.5278 2.20737 11.8731 1.44178 10.9739 0.865157C10.0747 0.288362 9.0833 0 7.99985 0C6.52773 0 5.27073 0.497286 4.22905 1.49161C3.1873 2.4857 2.66659 3.68564 2.66659 5.09096C2.66659 5.17712 2.67356 5.31966 2.68743 5.51845C1.86802 5.88305 1.21531 6.42989 0.729074 7.15898C0.243025 7.88828 0 8.68358 0 9.5455C0 10.7719 0.456679 11.8207 1.36978 12.6923C2.28292 13.5643 3.38191 14 4.66661 14H16.0001C17.1041 14 18.0467 13.627 18.8281 12.8814C19.6093 12.1358 20 11.236 20 10.1818C19.9999 9.29353 19.7099 8.50311 19.1299 7.8102ZM13.2292 8.19301L9.57286 11.6833C9.51043 11.7428 9.43053 11.7727 9.33326 11.7727C9.23606 11.7727 9.15616 11.7428 9.09367 11.6833L5.4271 8.18323C5.3646 8.12364 5.33341 8.04737 5.33341 7.95452C5.33341 7.86836 5.36624 7.79376 5.43221 7.73083C5.49832 7.66787 5.57629 7.63642 5.66655 7.63642H7.99989V4.13647C7.99989 4.05031 8.03291 3.97571 8.09884 3.91264C8.16484 3.84978 8.24292 3.81833 8.33318 3.81833H10.3334C10.4238 3.81833 10.5015 3.84967 10.5679 3.91264C10.6337 3.97571 10.6666 4.05031 10.6666 4.13647V7.63642H13C13.0972 7.63642 13.1771 7.66619 13.2394 7.72578C13.302 7.78537 13.3329 7.86164 13.3329 7.95449C13.3329 8.03438 13.2985 8.11361 13.2292 8.19301Z" fill="url(#paint0_linear_3269_240)"/>
<path d="M19.1299 7.8102C18.5499 7.1175 17.8088 6.66852 16.9058 6.46298C17.1908 6.05203 17.3328 5.59462 17.3328 5.09085C17.3328 4.38816 17.0724 3.78831 16.5517 3.29109C16.031 2.79405 15.4025 2.54543 14.6664 2.54543C14.0066 2.54543 13.4303 2.75094 12.9374 3.16196C12.5278 2.20737 11.8731 1.44178 10.9739 0.865157C10.0747 0.288362 9.0833 0 7.99985 0C6.52773 0 5.27073 0.497286 4.22905 1.49161C3.1873 2.4857 2.66659 3.68564 2.66659 5.09096C2.66659 5.17712 2.67356 5.31966 2.68743 5.51845C1.86802 5.88305 1.21531 6.42989 0.729074 7.15898C0.243025 7.88828 0 8.68358 0 9.5455C0 10.7719 0.456679 11.8207 1.36978 12.6923C2.28292 13.5643 3.38191 14 4.66661 14H16.0001C17.1041 14 18.0467 13.627 18.8281 12.8814C19.6093 12.1358 20 11.236 20 10.1818C19.9999 9.29353 19.7099 8.50311 19.1299 7.8102ZM13.2292 8.19301L9.57286 11.6833C9.51043 11.7428 9.43053 11.7727 9.33326 11.7727C9.23606 11.7727 9.15616 11.7428 9.09367 11.6833L5.4271 8.18323C5.3646 8.12364 5.33341 8.04737 5.33341 7.95452C5.33341 7.86836 5.36624 7.79376 5.43221 7.73083C5.49832 7.66787 5.57629 7.63642 5.66655 7.63642H7.99989V4.13647C7.99989 4.05031 8.03291 3.97571 8.09884 3.91264C8.16484 3.84978 8.24292 3.81833 8.33318 3.81833H10.3334C10.4238 3.81833 10.5015 3.84967 10.5679 3.91264C10.6337 3.97571 10.6666 4.05031 10.6666 4.13647V7.63642H13C13.0972 7.63642 13.1771 7.66619 13.2394 7.72578C13.302 7.78537 13.3329 7.86164 13.3329 7.95449C13.3329 8.03438 13.2985 8.11361 13.2292 8.19301Z" fill="url(#paint1_linear_3269_240)"/>
<path d="M19.1299 7.8102C18.5499 7.1175 17.8088 6.66852 16.9058 6.46298C17.1908 6.05203 17.3328 5.59462 17.3328 5.09085C17.3328 4.38816 17.0724 3.78831 16.5517 3.29109C16.031 2.79405 15.4025 2.54543 14.6664 2.54543C14.0066 2.54543 13.4303 2.75094 12.9374 3.16196C12.5278 2.20737 11.8731 1.44178 10.9739 0.865157C10.0747 0.288362 9.0833 0 7.99985 0C6.52773 0 5.27073 0.497286 4.22905 1.49161C3.1873 2.4857 2.66659 3.68564 2.66659 5.09096C2.66659 5.17712 2.67356 5.31966 2.68743 5.51845C1.86802 5.88305 1.21531 6.42989 0.729074 7.15898C0.243025 7.88828 0 8.68358 0 9.5455C0 10.7719 0.456679 11.8207 1.36978 12.6923C2.28292 13.5643 3.38191 14 4.66661 14H16.0001C17.1041 14 18.0467 13.627 18.8281 12.8814C19.6093 12.1358 20 11.236 20 10.1818C19.9999 9.29353 19.7099 8.50311 19.1299 7.8102ZM13.2292 8.19301L9.57286 11.6833C9.51043 11.7428 9.43053 11.7727 9.33326 11.7727C9.23606 11.7727 9.15616 11.7428 9.09367 11.6833L5.4271 8.18323C5.3646 8.12364 5.33341 8.04737 5.33341 7.95452C5.33341 7.86836 5.36624 7.79376 5.43221 7.73083C5.49832 7.66787 5.57629 7.63642 5.66655 7.63642H7.99989V4.13647C7.99989 4.05031 8.03291 3.97571 8.09884 3.91264C8.16484 3.84978 8.24292 3.81833 8.33318 3.81833H10.3334C10.4238 3.81833 10.5015 3.84967 10.5679 3.91264C10.6337 3.97571 10.6666 4.05031 10.6666 4.13647V7.63642H13C13.0972 7.63642 13.1771 7.66619 13.2394 7.72578C13.302 7.78537 13.3329 7.86164 13.3329 7.95449C13.3329 8.03438 13.2985 8.11361 13.2292 8.19301Z" fill="#1f397e"/>
<defs>
<linearGradient id="paint0_linear_3269_240" x1="0" y1="0" x2="20.8837" y2="1.47328" gradientUnits="userSpaceOnUse">
<stop stop-color="#1f397e"/>
<stop offset="1" stop-color="#1f397e"/>
</linearGradient>
<linearGradient id="paint1_linear_3269_240" x1="7.45058e-08" y1="7" x2="19.5833" y2="7" gradientUnits="userSpaceOnUse">
<stop stop-color="#1f397e"/>
<stop offset="1" stop-color="#1f397e"/>
</linearGradient>
</defs>
</svg>
